<?xml version="1.0" encoding="UTF-8"?><svg id="Layer_2" xmlns="http://www.w3.org/2000/svg" viewBox="0 0 100 80"><defs><style>.cls-1{fill:#fff;}</style></defs><g id="Layer_1-2"><g><rect class="cls-1" width="100" height="80"/><path d="m14.26,35.61v.25h4.21c2.68,0,4.46-1.81,4.46-4.02v-1.25c0-2.36-2.26-3.44-3.97-3.89,1.71-.45,3.72-1.53,3.72-3.89v-.5c0-2.21-1.78-4.02-4.46-4.02h-3.97v.25h.99v17.07h-.99Zm6.69-3.77c0,2.08-1.12,3.77-2.48,3.77h-1.24v-8.78h.99c1.36,0,2.73,1.53,2.73,3.77v1.25Zm-.25-9.04c0,2.23-1.12,3.77-2.48,3.77h-.99v-8.03h.99c1.36,0,2.48,1.68,2.48,3.77v.5Z"/><path d="m35.16,18.29h-7.19v.25h.99v17.07h-.99v.25h7.19v-3.51h-.25c0,1.81-.72,3.26-1.61,3.26h-2.36v-8.41h1.49c.55,0,.99.9.99,2.01h.25v-4.27h-.25c0,1.1-.45,2.01-.99,2.01h-1.49v-8.41h2.36c.89,0,1.61,1.46,1.61,3.26h.25v-3.51Z"/><path d="m40.41,35.86h.25c0-.8.25-1.15.52-1.26.62.93,1.59,1.51,2.93,1.51,2.33,0,3.69-2.03,3.69-4.52,0-5.22-5.6-5.6-5.6-10.29,0-1.78.69-2.94,2.03-2.94,1.51,0,2.83,1.66,2.83,3.69h.25v-3.77h-.25c0,.6-.3.9-.67.9-.57-.7-1.39-1.15-2.53-1.15-2.21,0-3.45,1.91-3.45,4.27,0,5.27,5.6,5.65,5.6,10.29,0,1.78-.94,3.19-2.28,3.19-1.64,0-3.07-1.76-3.07-3.94h-.25v4.02Z"/><path d="m52.34,18.29v3.51h.25c0-1.81.72-3.26,1.61-3.26h1.61v17.07h-.99v.25h3.97v-.25h-.99v-17.07h1.61c.89,0,1.61,1.46,1.61,3.26h.25v-3.51h-8.93Z"/><path d="m22.17,53.2h.99v-.25h-3.97v.25h.99v4.74c0,2.08-.77,3.77-1.74,3.77s-1.74-1.68-1.74-3.77v-10.04c0-2.08.74-3.77,1.98-3.77,1.46,0,2.73,1.61,2.73,3.77h.25v-3.77h-.25c0,.6-.3.9-.64.9-.55-.73-1.29-1.15-2.33-1.15-2.06,0-3.72,1.81-3.72,4.02v10.04c0,2.21,1.66,4.02,3.72,4.02,1.44,0,1.96-1.56,3.72-1.56v-7.2Z"/><path d="m35.43,45.14c0-.43.32-.75,1.11-.75v-.25h-2.36v.25h.99v13.55c0,2.08-1.22,3.77-2.73,3.77-1.24,0-1.98-1.68-1.98-3.77v-13.55h.99v-.25h-3.97v.25h.99v13.55c0,2.21,1.66,4.02,3.97,4.02,1.64,0,2.98-1.81,2.98-4.02v-12.8Z"/><polygon points="41.21 44.14 41.21 44.39 42.2 44.39 42.2 61.46 41.21 61.46 41.21 61.71 45.17 61.71 45.17 61.46 44.18 61.46 44.18 44.39 45.17 44.39 45.17 44.14 41.21 44.14"/><path d="m50.13,61.46v.25h3.97c2.68,0,4.46-1.81,4.46-4.02v-9.54c0-2.21-1.78-4.02-4.46-4.02h-3.97v.25h.99v17.07h-.99Zm6.45-3.77c0,2.08-1.12,3.77-2.48,3.77h-.99v-17.07h.99c1.36,0,2.48,1.68,2.48,3.77v9.54Z"/><path d="m71.16,44.14h-7.19v.25h.99v17.07h-.99v.25h7.19v-3.51h-.25c0,1.81-.72,3.26-1.61,3.26h-2.36v-8.41h1.49c.55,0,.99.9.99,2.01h.25v-4.27h-.25c0,1.1-.45,2.01-.99,2.01h-1.49v-8.41h2.36c.89,0,1.61,1.46,1.61,3.26h.25v-3.51Z"/><path d="m76.41,61.71h.25c0-.8.25-1.16.52-1.26.62.93,1.59,1.51,2.93,1.51,2.33,0,3.69-2.03,3.69-4.52,0-5.22-5.6-5.6-5.6-10.29,0-1.78.69-2.94,2.03-2.94,1.51,0,2.83,1.66,2.83,3.69h.25v-3.77h-.25c0,.6-.3.9-.67.9-.57-.7-1.39-1.15-2.53-1.15-2.21,0-3.45,1.91-3.45,4.27,0,5.27,5.6,5.65,5.6,10.29,0,1.78-.94,3.19-2.28,3.19-1.64,0-3.07-1.76-3.07-3.94h-.25v4.02Z"/><rect x="65.76" y="18.48" width="19.98" height="17.98"/><path class="cls-1" d="m70.97,30.76v.11h1.78c1.13,0,1.89-.76,1.89-1.7v-.53c0-1-.96-1.45-1.68-1.64.72-.19,1.57-.65,1.57-1.65v-.21c0-.93-.76-1.7-1.89-1.7h-1.68v.11h.42v7.23h-.42Zm2.83-1.59c0,.88-.47,1.59-1.05,1.59h-.52v-3.72h.42c.58,0,1.15.65,1.15,1.59v.53Zm-.1-3.83c0,.95-.47,1.59-1.05,1.59h-.42v-3.4h.42c.58,0,1.05.71,1.05,1.59v.21Z"/><path class="cls-1" d="m80.12,27.27h.42v-.11h-1.68v.11h.42v2.01c0,.88-.33,1.59-.74,1.59s-.73-.71-.73-1.59v-4.25c0-.88.31-1.59.84-1.59.62,0,1.15.68,1.15,1.59h.1v-1.59h-.1c0,.26-.13.38-.27.38-.23-.31-.55-.49-.99-.49-.87,0-1.57.76-1.57,1.7v4.25c0,.94.7,1.7,1.57,1.7.61,0,.83-.66,1.57-.66v-3.05Z"/></g></g></svg>