<svg fill="none" height="40" viewBox="0 0 40 40" width="40" xmlns="http://www.w3.org/2000/svg"><path d="m15.8 10h8.4c3.2 0 5.8 2.6 5.8 5.8v8.4c0 1.5383-.6111 3.0135-1.6988 4.1012s-2.5629 1.6988-4.1012 1.6988h-8.4c-3.2 0-5.8-2.6-5.8-5.8v-8.4c0-1.5383.6111-3.0135 1.6988-4.1012s2.5629-1.6988 4.1012-1.6988zm-.2 2c-.9548 0-1.8705.3793-2.5456 1.0544s-1.0544 1.5908-1.0544 2.5456v8.8c0 1.99 1.61 3.6 3.6 3.6h8.8c.9548 0 1.8705-.3793 2.5456-1.0544s1.0544-1.5908 1.0544-2.5456v-8.8c0-1.99-1.61-3.6-3.6-3.6zm9.65 1.5c.3315 0 .6495.1317.8839.3661s.3661.5524.3661.8839-.1317.6495-.3661.8839-.5524.3661-.8839.3661-.6495-.1317-.8839-.3661-.3661-.5524-.3661-.8839.1317-.6495.3661-.8839.5524-.3661.8839-.3661zm-5.25 1.5c1.3261 0 2.5979.5268 3.5355 1.4645.9377.9376 1.4645 2.2094 1.4645 3.5355s-.5268 2.5979-1.4645 3.5355c-.9376.9377-2.2094 1.4645-3.5355 1.4645s-2.5979-.5268-3.5355-1.4645c-.9377-.9376-1.4645-2.2094-1.4645-3.5355s.5268-2.5979 1.4645-3.5355c.9376-.9377 2.2094-1.4645 3.5355-1.4645zm0 2c-.7956 0-1.5587.3161-2.1213.8787s-.8787 1.3257-.8787 2.1213.3161 1.5587.8787 2.1213 1.3257.8787 2.1213.8787 1.5587-.3161 2.1213-.8787.8787-1.3257.8787-2.1213-.3161-1.5587-.8787-2.1213-1.3257-.8787-2.1213-.8787z" fill="#fff"/></svg>